<svg height="512" viewBox="0 0 64 64" width="512" xmlns="http://www.w3.org/2000/svg"><g id="Hospital"><path d="m61.79 14.41.01-.01-3-4a1.014 1.014 0 0 0 -.8-.4v-2.7l1.83-2.75-1.66-1.1-2 3a.967.967 0 0 0 -.17.55v3h-3v-6h2v-2h-6v2h2v6h-2a1.033 1.033 0 0 0 -.71.29l-2.29 2.3v-9.59a1 1 0 0 0 -1-1h-26a1 1 0 0 0 -1 1v9.59l-2.29-2.3a1.033 1.033 0 0 0 -.71-.29h-2v-6h2v-2h-6v2h2v6h-3v-3a.967.967 0 0 0 -.17-.55l-2-3-1.66 1.1 1.83 2.75v2.7a1.014 1.014 0 0 0 -.8.4l-3 4 .01.01a1.006 1.006 0 0 0 -.21.59v46a1 1 0 0 0 1 1h58a1 1 0 0 0 1-1v-46a1.006 1.006 0 0 0 -.21-.59zm-55.29-2.41h8.09l2 2h-11.59zm11.5 48h-14v-44h14zm19 0h-10v-11a5 5 0 0 1 10 0zm7 0h-5v-11a7 7 0 0 0 -14 0v11h-5v-56h24zm5.41-48h8.09l1.5 2h-11.59zm10.59 48h-14v-44h14z"/><path d="m24 20h4v4a1 1 0 0 0 1 1h6a1 1 0 0 0 1-1v-4h4a1 1 0 0 0 1-1v-6a1 1 0 0 0 -1-1h-4v-4a1 1 0 0 0 -1-1h-6a1 1 0 0 0 -1 1v4h-4a1 1 0 0 0 -1 1v6a1 1 0 0 0 1 1zm1-6h4a1 1 0 0 0 1-1v-4h4v4a1 1 0 0 0 1 1h4v4h-4a1 1 0 0 0 -1 1v4h-4v-4a1 1 0 0 0 -1-1h-4z"/><path d="m48 28h2v2h-2z"/><path d="m52 28h2v2h-2z"/><path d="m56 28h2v2h-2z"/><path d="m48 32h2v2h-2z"/><path d="m52 32h2v2h-2z"/><path d="m56 32h2v2h-2z"/><path d="m48 36h2v2h-2z"/><path d="m52 36h2v2h-2z"/><path d="m56 36h2v2h-2z"/><path d="m48 40h2v2h-2z"/><path d="m52 40h2v2h-2z"/><path d="m56 40h2v2h-2z"/><path d="m48 44h2v2h-2z"/><path d="m52 44h2v2h-2z"/><path d="m56 44h2v2h-2z"/><path d="m48 48h2v2h-2z"/><path d="m52 48h2v2h-2z"/><path d="m56 48h2v2h-2z"/><path d="m48 52h2v2h-2z"/><path d="m52 52h2v2h-2z"/><path d="m56 52h2v2h-2z"/><path d="m48 56h2v2h-2z"/><path d="m52 56h2v2h-2z"/><path d="m56 56h2v2h-2z"/><path d="m48 26h10a1 1 0 0 0 1-1v-6a1 1 0 0 0 -1-1h-10a1 1 0 0 0 -1 1v6a1 1 0 0 0 1 1zm1-6h8v4h-8z"/><path d="m14 28h2v2h-2z"/><path d="m10 28h2v2h-2z"/><path d="m6 28h2v2h-2z"/><path d="m14 32h2v2h-2z"/><path d="m10 32h2v2h-2z"/><path d="m6 32h2v2h-2z"/><path d="m14 36h2v2h-2z"/><path d="m10 36h2v2h-2z"/><path d="m6 36h2v2h-2z"/><path d="m14 40h2v2h-2z"/><path d="m10 40h2v2h-2z"/><path d="m6 40h2v2h-2z"/><path d="m14 44h2v2h-2z"/><path d="m10 44h2v2h-2z"/><path d="m6 44h2v2h-2z"/><path d="m14 48h2v2h-2z"/><path d="m10 48h2v2h-2z"/><path d="m6 48h2v2h-2z"/><path d="m14 52h2v2h-2z"/><path d="m10 52h2v2h-2z"/><path d="m6 52h2v2h-2z"/><path d="m14 56h2v2h-2z"/><path d="m10 56h2v2h-2z"/><path d="m6 56h2v2h-2z"/><path d="m16 18h-10a1 1 0 0 0 -1 1v6a1 1 0 0 0 1 1h10a1 1 0 0 0 1-1v-6a1 1 0 0 0 -1-1zm-1 6h-8v-4h8z"/><path d="m23 38h18a1 1 0 0 0 1-1v-8a1 1 0 0 0 -1-1h-18a1 1 0 0 0 -1 1v8a1 1 0 0 0 1 1zm1-8h16v6h-16z"/></g></svg>